<?xml version="1.0" encoding="UTF-8" standalone="no"?>
<svg
   xmlns:dc="http://purl.org/dc/elements/1.1/"
   xmlns:cc="http://creativecommons.org/ns#"
   xmlns:rdf="http://www.w3.org/1999/02/22-rdf-syntax-ns#"
   xmlns:svg="http://www.w3.org/2000/svg"
   xmlns="http://www.w3.org/2000/svg"
   xmlns:sodipodi="http://sodipodi.sourceforge.net/DTD/sodipodi-0.dtd"
   xmlns:inkscape="http://www.inkscape.org/namespaces/inkscape"
   id="028cd87a-0b35-461a-bfe3-3b7f66159f45"
   data-name="Layer 1"
   width="1061.37"
   height="862.18"
   viewBox="0 0 1061.37 862.18"
   version="1.1"
   sodipodi:docname="undraw_social_ideas_e8rj.svg"
   inkscape:version="1.0 (4035a4fb49, 2020-05-01)">
  <metadata
     id="metadata146">
    <rdf:RDF>
      <cc:Work
         rdf:about="">
        <dc:format>image/svg+xml</dc:format>
        <dc:type
           rdf:resource="http://purl.org/dc/dcmitype/StillImage" />
      </cc:Work>
    </rdf:RDF>
  </metadata>
  <sodipodi:namedview
     inkscape:document-rotation="0"
     pagecolor="#ffffff"
     bordercolor="#666666"
     borderopacity="1"
     objecttolerance="10"
     gridtolerance="10"
     guidetolerance="10"
     inkscape:pageopacity="0"
     inkscape:pageshadow="2"
     inkscape:window-width="1366"
     inkscape:window-height="705"
     id="namedview144"
     showgrid="false"
     inkscape:zoom="0.62399963"
     inkscape:cx="506.33657"
     inkscape:cy="394.82525"
     inkscape:window-x="-8"
     inkscape:window-y="-8"
     inkscape:window-maximized="1"
     inkscape:current-layer="028cd87a-0b35-461a-bfe3-3b7f66159f45" />
  <defs
     id="defs9">
    <linearGradient
       id="9d8dd509-b6b1-49aa-9217-31324d378028"
       x1="589.43"
       y1="881.09"
       x2="589.43"
       y2="18.91"
       gradientUnits="userSpaceOnUse"
       gradientTransform="matrix(-1,0,0,1,1130.6975,-18.91)">
      <stop
         offset="0"
         stop-color="gray"
         stop-opacity="0.25"
         id="stop2" />
      <stop
         offset="0.54"
         stop-color="gray"
         stop-opacity="0.12"
         id="stop4" />
      <stop
         offset="1"
         stop-color="gray"
         stop-opacity="0.1"
         id="stop6" />
    </linearGradient>
  </defs>
  <title
     id="title11">social_ideas</title>
  <path
     d="m 921.57754,531.51 c 0,0 58.69,-115 32.93,-212.55 -10.81,-41 -8.83,-84.27 7.08,-123.52 a -329,329 0 0 1 27.71,-53.35"
     fill="none"
     stroke="#535461"
     stroke-miterlimit="10"
     stroke-width="2"
     id="path13" />
  <path
     d="m 973.42754,80.46 c -2.8,14.92 16.09,63.24 16.09,63.24 0,0 35.11996,-38.19 37.91996,-53.1 A -27.48,27.48 0 0 0 973.43754,80.46 Z"
     fill="#cc7178"
     id="path15" />
  <path
     d="m 913.27754,154.71 c 5.76,14 47.88,44.34 47.88,44.34 0,0 8.73,-51.14 3,-65.19 a -27.48,27.48 0 1 0 -50.85,20.85 z"
     fill="#cc7178"
     id="path17" />
  <path
     d="m 888.69754,296.26 c 12.06,9.22 63.71,14.1 63.71,14.1 0,0 -18.28,-48.56 -30.34,-57.77 a -27.48011,27.48011 0 0 0 -33.37,43.67 z"
     fill="#cc7178"
     id="path19" />
  <path
     d="m 894.27754,407.55 c 10.33,11.12 60.42,24.66 60.42,24.66 0,0 -9.81,-50.95 -20.14,-62.07 a -27.48,27.48 0 0 0 -40.27,37.4 z"
     fill="#cc7178"
     id="path21" />
  <path
     d="m 1017.3275,212.57 c -12.65,8.39 -64.50996,9.8 -64.50996,9.8 0,0 21.5,-47.22 34.15,-55.61 a -27.481325,27.481325 0 1 1 30.36996,45.81 z"
     fill="#cc7178"
     id="path23" />
  <path
     d="m 1022.1575,342.81 c -14.58,4.22 -64.48996,-10 -64.48996,-10 0,0 34.64,-38.62 49.21996,-42.84 a -27.48,27.48 0 0 1 15.27,52.79 z"
     fill="#cc7178"
     id="path25" />
  <path
     d="m 1009.4875,470.03 c -13.65996,6.62 -65.23996,1.09 -65.23996,1.09 0,0 27.62,-43.92 41.27,-50.54 a -27.483188,27.483188 0 1 1 23.99996,49.45 z"
     fill="#cc7178"
     id="path27" />
  <path
     style="fill:#aaee99;fill-opacity:1"
     d="m 973.42754,80.46 c -2.8,14.92 16.09,63.24 16.09,63.24 0,0 35.11996,-38.19 37.91996,-53.1 A -27.48,27.48 0 0 0 973.43754,80.46 Z"
     fill="#fc6681"
     id="path29" />
  <path
     style="fill:#aaee99;fill-opacity:1"
     d="m 913.27754,154.71 c 5.76,14 47.88,44.34 47.88,44.34 0,0 8.73,-51.14 3,-65.19 a -27.48,27.48 0 1 0 -50.85,20.85 z"
     fill="#fc6681"
     id="path31" />
  <path
     style="fill:#aaee99;fill-opacity:1"
     d="m 888.69754,296.26 c 12.06,9.22 63.71,14.1 63.71,14.1 0,0 -18.28,-48.56 -30.34,-57.77 a -27.48011,27.48011 0 0 0 -33.37,43.67 z"
     fill="#fc6681"
     id="path33" />
  <path
     d="m 894.27754,407.55 c 10.33,11.12 60.42,24.66 60.42,24.66 0,0 -9.81,-50.95 -20.14,-62.07 a -27.48,27.48 0 0 0 -40.27,37.4 z"
     fill="#fc6681"
     id="path35" />
  <path
     style="fill:#aaee99;fill-opacity:1"
     d="m 1017.3275,212.57 c -12.65,8.39 -64.50996,9.8 -64.50996,9.8 0,0 21.5,-47.22 34.15,-55.61 a -27.481325,27.481325 0 1 1 30.36996,45.81 z"
     fill="#fc6681"
     id="path37" />
  <path
     style="fill:#aaee99;fill-opacity:1"
     d="m 1022.1575,342.81 c -14.58,4.22 -64.48996,-10 -64.48996,-10 0,0 34.64,-38.62 49.21996,-42.84 a -27.48,27.48 0 0 1 15.27,52.79 z"
     fill="#fc6681"
     id="path39" />
  <path
     style="fill:#aaee99;fill-opacity:1"
     d="m 1009.4875,470.03 c -13.65996,6.62 -65.23996,1.09 -65.23996,1.09 0,0 27.62,-43.92 41.27,-50.54 a -27.483188,27.483188 0 1 1 23.99996,49.45 z"
     fill="#fc6681"
     id="path41" />
  <path
     d="m 142.75754,317.17 c 0,0 -74.490002,-117.08 -83.490002,-167.08 -9,-50 -26,-96 -26,-96"
     fill="none"
     stroke="#535461"
     stroke-miterlimit="10"
     stroke-width="2"
     id="path43" />
  <path
     style="fill:#aaee99;fill-opacity:1"
     d="m 16.267538,154.09 47,4 c 0,0 -25,43 -47,-4 z"
     fill="#cc7178"
     id="path45" />
  <path
     style="fill:#aaee99;fill-opacity:1"
     d="m 98.267538,128.09 -37.22,29.81 c 0,0 48.220002,19.19 37.22,-29.81 z"
     fill="#cc7178"
     id="path47" />
  <path
     style="fill:#aaee99;fill-opacity:1"
     d="m 10.267538,113.09 42.32,5.67 c 0,0 -37.32,30.33 -42.32,-5.67 z"
     fill="#cc7178"
     id="path49" />
  <path
     style="fill:#aaee99;fill-opacity:1"
     d="m 80.267538,98.09 -27.94,19.61 c 0,0 33.94,14.39 27.94,-19.61 z"
     fill="#cc7178"
     id="path51" />
  <path
     style="fill:#aaee99;fill-opacity:1"
     d="m 41.957538,80.28 c 0,0 -34.6900005,-9.19 -39.6900005,-7.19 -5,2 -1.99999997,24 12.0000005,25 14,1 27.69,-17.81 27.69,-17.81 z"
     fill="#cc7178"
     id="path53" />
  <path
     style="fill:#aaee99;fill-opacity:1"
     d="m 65.267538,54.09 c 0,0 -22,21 -23,26 -1,5 18,17 28,0 10,-17 -5,-26 -5,-26 z"
     fill="#cc7178"
     id="path55" />
  <circle
     cx="-24.277552"
     cy="56.09"
     r="10"
     fill="#ffd037"
     id="circle57"
     transform="scale(-1,1)" />
  <circle
     cx="-42.277554"
     cy="51.09"
     r="10"
     fill="#ffd037"
     id="circle59"
     transform="scale(-1,1)" />
  <path
     d="m 21.817538,264.86 c 3.89,-48.19 25.81,-94.63 60.21,-121.83 36.820002,-29.12 83.330002,-34.56 125.230002,-52 43.27,-18.06 81.76,-49.11 124.61,-68.47 a -254.8,254.8 0 0 1 219.77,5 c 46.64,23.54 93.9,78.57 145.84,82.71 37,2.95 111.12,-34.12 140,0.95 5.27,6.4 7.31,15.4 9.58,23.87 18.3,68.19 63.37,123 114.69,162.24 21.74,16.6 48.19996,38.86 43.44996,68.61 -2.56,16 -13.79996,27.74 -22.15996,40.76 -17.51,27.25 -23.19,64.3 -14.84,96.92 0.17,0.65 0.35,1.3 0.53,2 l 21.84,11.1 c 11.55996,5.87 23.99996,12.74 28.74996,24.81 4.88,12.52 -0.25,26.69 -7.12,38.25 -4.92,8.27 -10.8,16.17 -14.92996,24.78 a -66.73,66.73 0 0 1 -1.26,8.4 -64.78,64.78 0 0 1 -4,12.14 c -0.37,13.57 4.77,27.29 11.99996,39 9,14.61 21,27.07 31.11,40.9 14.05,19.09 24.58,41.49 26.09,65.21 1.51,23.72 -6.93,48.74 -25.3,63.82 -16.86,13.84 -39.63996,18 -61.41996,19 q -8.28,0.41 -16.55,0.35 c -38.84,0 -77.48,-7.14 -115.75,-14.28 l -41.41,-7.72 c -19,-3.55 -38.85,-7.55 -57,-14.38 a -91.33,91.33 0 0 0 2.21,11.3 -108,108 0 0 1 3.9,33.29 v 0 h -203.84 c 0,0.17 -0.07,0.34 -0.11,0.51 h -126.32 l 0.22,-0.51 h -0.22 c 0,0 1.93,-6.08 4.51,-17.15 a -37.6,37.6 0 0 1 -8.21,-5.4 -40,40 0 0 1 -13.74,-15.4 c 0,0 -6.08,-108.84 -0.14,-170.65 -65.47,-43.56 -121.68,-107.38 -190.43,-144.61 -35.74,-19.29 -74.64,-31.29 -107.75,-56.23 A -201.3,201.3 0 0 1 56.497538,400.89 c -25.06,-38.61 -38.57,-87.8 -34.68,-136.03 z"
     fill="url(#9d8dd509-b6b1-49aa-9217-31324d378028)"
     id="path61"
     style="fill:url(#9d8dd509-b6b1-49aa-9217-31324d378028)" />
  <path
     d="m 830.08754,119.09 c 5.14,6.24 7.12,15 9.34,23.27 17.84,66.49 61.78,120 111.83,158.18 21.19,16.18 47,37.89 42.36,66.89 -2.49,15.58 -13.45,27 -21.61,39.74 -17.08,26.57 -22.61,62.7 -14.47,94.5 9.26,36.19 35.12,70 27.11,106.56 -4.94,22.56 -21.7,38.56 -37.82,52.34 q -37.71,32.23 -77.83,60.37 c -17.93,12.58 -37,24.82 -57.89,26.41 -18.4,1.41 -36.42,-5.58 -53.88,-12.49 -15.26,-6 -30.91,-12.31 -43.23,-24.4 -8,-7.89 -14.46,-18.08 -23.39,-24.53 -21,-15.17 -47.94,-5.55 -72,0.91 a -250.72,250.72 0 0 1 -171.6,-15.71 c -82.89,-39 -146.07,-120.75 -227.12,-164.64 -34.86,-18.88 -72.78,-30.59 -105.06,-54.9 a -196.26,196.26 0 0 1 -46.180002,-50 c -24.44,-37.65 -37.61,-85.65 -33.82,-132.63 3.79,-46.98 25.17,-92.27 58.7,-118.79 35.900002,-28.39 81.240002,-33.69 122.100002,-50.74 42.19,-17.61 79.71,-47.88 121.49,-66.76 a -248.43,248.43 0 0 1 214.28,4.84 c 45.47,22.95 91.55,76.61 142.2,80.64 36.1,2.94 108.31,-33.21 136.49,0.94 z"
     fill="#cc7178"
     id="path63" />
  <path
     d="m 485.43754,371.92 c 0,0.68 0,1.35 0,2 0,20.59 -15.67,44.32 -44.32,44.32 a -44,44 0 0 1 -23.92,-7 -32.22,32.22 0 0 0 3.76,0.19 -31.2,31.2 0 0 0 19.34,-6.65 -15.6,15.6 0 0 1 -14.5,-10.77 -19.64,19.64 0 0 0 2.94,0.24 -16.47,16.47 0 0 0 4.1,-0.53 -15.58,15.58 0 0 1 -12.49,-15.29 v -0.19 a -15.69,15.69 0 0 0 7,2 -15.6,15.6 0 0 1 -4.82,-20.83 -44.28,44.28 0 0 0 32.12,16.3 -17.58,17.58 0 0 1 -0.39,-3.57 -15.59,15.59 0 0 1 27,-10.66 -30.67,30.67 0 0 0 9.89,-3.76 -15.53,15.53 0 0 1 -6.85,8.58 -31.23,31.23 0 0 0 9,-2.41 -33.48,33.48 0 0 1 -7.81,8.05 z"
     opacity="0.2"
     id="path65" />
  <path
     d="m 546.81754,383.5 c 32.58,95.27 28.88,127.4 28.88,127.4 l -7,54 c 0,0 141,20 119,-46 -12.61,-37.84 -9.78,-98.7 -5.06,-143.73 3.51,-33.52 8.06,-58.27 8.06,-58.27 l -162,17 c 7,18.19 13,34.66 18.12,49.6 z"
     fill="#ffd5d8"
     id="path67" />
  <path
     d="m 528.69754,333.9 c 7,18.17 13,34.66 18.16,49.6 a -107,107 0 0 0 135.78,-8.33 c 3.51,-33.52 8.06,-58.27 8.06,-58.27 z"
     opacity="0.1"
     id="path69" />
  <circle
     cx="-609.65753"
     cy="294.89999"
     r="107"
     fill="#ffd5d8"
     id="circle71"
     transform="scale(-1,1)" />
  <path
     d="m 537.69754,570.9 63,-27 -11,-84 a -136,136 0 0 0 -27.07,6 c -24.26,7.86 -57,25.61 -63.89,64.83 a -1.42,1.42 0 0 0 0,0.2 c -11.04,63.97 38.96,39.97 38.96,39.97 z"
     fill="#ffd5d8"
     id="path73" />
  <path
     d="m 498.69754,530.7 8.46,12.7 33.88,2.26 v -22.77 c 0,0 8.12,-26.49 8.12,-28.49 0,-2 13.54,-25.75 13.54,-25.75 l 5.46,-4.25 -5.57,1.47 c -24.26,7.86 -57.05,25.61 -63.89,64.83 z"
     opacity="0.05"
     id="path75" />
  <path
     d="m 568.15754,464.4 -19.5,36.5 v 45 l -27,7 17,-47 c 0,0 19.5,-37.5 29.5,-41.5 z"
     fill="#cc7178"
     id="path77" />
  <path
     d="m 744.69754,850.9 v 0 a -105.35,105.35 0 0 0 -3.8,-32.46 c -12.76,-46.89 8.8,-199.5 8.8,-199.5 0,0 -6,-130 -86,-152 -76.39,-21 -130,65.57 -134.66,73.43 -0.23,0.37 -0.34,0.57 -0.34,0.57 l -31.8,-13.91 -0.2,-0.09 c 0,0.16 0,0.33 0,0.5 -0.25,7.11 -5.72,21.13 -13.29,37.34 a -474,474 0 0 0 -29.88,83.75 -484.53,484.53 0 0 0 -14.41,96.5 c -3.11,63.85 -16.42,105.87 -16.42,105.87 z"
     fill="#cc7178"
     id="path79" />
  <path
     d="m 453.47754,648.49 -4.32,28.91 80,-137 -0.16,-0.07 -31.84,-13.93 -0.3,0.59 -0.21,0.41 c -0.25,7.11 -5.72,21.13 -13.29,37.34 a -474,474 0 0 0 -29.88,83.75 z"
     opacity="0.1"
     id="path81" />
  <path
     d="m 659.10754,146.85 c 42.16,-4.76 86.77,5.58 119.59,32.47 32.82,26.89 52,71.12 44.63,112.9 -6.17,34.76 -29.47,68.11 -21.16,102.41 7.89,32.58 40.9,51.56 70.78,66.75 l 104.39,53.06 c 11.27,5.73 23.43996,12.42 27.99996,24.19 4.76,12.21 -0.24,26 -6.93996,37.29 -6.7,11.29 -15.25,21.81 -18.38,34.54 -4,16.23 1.66,33.46 10.39,47.7 8.73,14.24 20.45996,26.4 30.32996,39.88 13.73,18.7 23.96,40.57 25.48,63.69 1.52,23.12 -6.76,47.52 -24.66,62.23 -16.43,13.5 -38.63996,17.51 -59.88996,18.56 -42.62,2.1 -85,-5.76 -127,-13.58 l -40.37,-7.53 c -37.17,-6.93 -77.46,-15.63 -101.64,-44.71 -28,-33.62 -24.77,-82.48 -19.27,-125.86 5.5,-43.38 10.72,-91.5 -14.69,-127.12 -16.61,-23.33 -44.42,-37.8 -57.63,-63.21 -24.18,-46.47 11,-103.71 -0.35,-154.84 -3.22,-14.48 -10.1,-27.87 -14.39,-42.07 -7.63,-25.27 -8.44,-61.7 4.64,-85.76 12.03,-22.05 45.46,-28.44 68.14,-30.99 z"
     opacity="0.1"
     id="path83" />
  <path
     d="m 661.10754,146.85 c 42.16,-4.76 86.77,5.58 119.59,32.47 32.82,26.89 52,71.12 44.63,112.9 -6.17,34.76 -29.47,68.11 -21.16,102.41 7.89,32.58 40.9,51.56 70.78,66.75 l 104.39,53.06 c 11.27,5.73 23.43996,12.42 27.99996,24.19 4.76,12.21 -0.24,26 -6.94,37.29 -6.69996,11.29 -15.24996,21.81 -18.37996,34.54 -4,16.23 1.66,33.46 10.39,47.7 8.72996,14.24 20.45996,26.4 30.32996,39.88 13.73,18.7 23.96,40.57 25.48,63.69 1.52,23.12 -6.76,47.52 -24.66,62.23 -16.43,13.5 -38.63996,17.51 -59.88996,18.56 -42.62,2.1 -85,-5.76 -127,-13.58 l -40.37,-7.53 c -37.17,-6.93 -77.46,-15.63 -101.64,-44.71 -28,-33.62 -24.77,-82.48 -19.27,-125.86 5.5,-43.38 10.72,-91.5 -14.69,-127.12 -16.61,-23.33 -44.42,-37.8 -57.63,-63.21 -24.18,-46.47 11,-103.71 -0.35,-154.84 -3.22,-14.48 -10.1,-27.87 -14.39,-42.07 -7.63,-25.27 -8.44,-61.7 4.64,-85.76 12.03,-22.05 45.46,-28.44 68.14,-30.99 z"
     fill="#cc7178"
     id="path85" />
  <path
     d="m 661.10754,146.85 c 42.16,-4.76 86.77,5.58 119.59,32.47 32.82,26.89 52,71.12 44.63,112.9 -6.17,34.76 -29.47,68.11 -21.16,102.41 7.89,32.58 40.9,51.56 70.78,66.75 l 104.39,53.06 c 11.27,5.73 23.43996,12.42 27.99996,24.19 4.76,12.21 -0.24,26 -6.94,37.29 -6.69996,11.29 -15.24996,21.81 -18.37996,34.54 -4,16.23 1.66,33.46 10.39,47.7 8.72996,14.24 20.45996,26.4 30.32996,39.88 13.73,18.7 23.96,40.57 25.48,63.69 1.52,23.12 -6.76,47.52 -24.66,62.23 -16.43,13.5 -38.63996,17.51 -59.88996,18.56 -42.62,2.1 -85,-5.76 -127,-13.58 l -40.37,-7.53 c -37.17,-6.93 -77.46,-15.63 -101.64,-44.71 -28,-33.62 -24.77,-82.48 -19.27,-125.86 5.5,-43.38 10.72,-91.5 -14.69,-127.12 -16.61,-23.33 -44.42,-37.8 -57.63,-63.21 -24.18,-46.47 11,-103.71 -0.35,-154.84 -3.22,-14.48 -10.1,-27.87 -14.39,-42.07 -7.63,-25.27 -8.44,-61.7 4.64,-85.76 12.03,-22.05 45.46,-28.44 68.14,-30.99 z"
     opacity="0.1"
     id="path87" />
  <path
     d="m 568.15754,464.4 -75,137.69 -52,-26.69 c 0,0 93,-126 105,-124 12,2 22,13 22,13 z"
     fill="#cc7178"
     id="path89" />
  <path
     d="m 429.69754,560.9 17,-50 c 0,0 12,-123 59,-127 47,-4 -12,131 -12,131 0,0 -21,39 -13,68 8,29 -51,-22 -51,-22 z"
     fill="#ffd5d8"
     id="path91" />
  <path
     d="m 669.60754,654.56 -116.91,141.34 c 0,0 -112,80 -143,21 0,0 -13,-161 2,-199 15,-38 20,-62 20,-62 0,0 62,24 66,7 l -1.5,162.5 c 0,0 70.5,-259.5 138.5,-227.5 q 1.42,0.67 2.8,1.35 c 58.2,28.94 73.58,105.19 32.11,155.31 z"
     opacity="0.1"
     id="path93" />
  <path
     d="m 665.60754,651.56 -116.91,141.34 c 0,0 -112,80 -143,21 0,0 -9,-161 6,-199 15,-38 16,-62 16,-62 0,0 62,24 66,7 l -2.5,201.5 c 0,0 71.5,-298.5 139.5,-266.5 q 1.42,0.67 2.8,1.35 c 58.2,28.94 73.58,105.19 32.11,155.31 z"
     fill="#cc7178"
     id="path95" />
  <circle
     cx="-369.15756"
     cy="115.4"
     r="8"
     fill="#fff"
     id="circle97"
     transform="scale(-1,1)" />
  <circle
     cx="-395.15756"
     cy="226.39999"
     r="4"
     fill="#fff"
     id="circle99"
     transform="scale(-1,1)" />
  <circle
     cx="-545.15753"
     cy="115.4"
     r="4"
     fill="#fff"
     id="circle101"
     transform="scale(-1,1)" />
  <circle
     cx="-877.69751"
     cy="278.09"
     r="4"
     fill="#fff"
     id="circle103"
     transform="scale(-1,1)" />
  <circle
     cx="-646.15753"
     cy="567.40002"
     r="4"
     fill="#fff"
     id="circle105"
     transform="scale(-1,1)" />
  <circle
     cx="-917.15753"
     cy="383.39999"
     r="4"
     fill="#fff"
     id="circle107"
     transform="scale(-1,1)" />
  <circle
     cx="-222.15756"
     cy="145.39999"
     r="4"
     fill="#fff"
     id="circle109"
     transform="scale(-1,1)" />
  <circle
     cx="-449.15756"
     cy="307.39999"
     r="4"
     fill="#fff"
     id="circle111"
     transform="scale(-1,1)" />
  <circle
     cx="-107.15755"
     cy="255.39999"
     r="4"
     fill="#fff"
     id="circle113"
     transform="scale(-1,1)" />
  <circle
     cx="-368.69754"
     cy="553.09003"
     r="4"
     fill="#fff"
     id="circle115"
     transform="scale(-1,1)" />
  <polygon
     points="830.92,264.21 830.92,255.9 829.53,255.9 829.53,264.21 821.23,264.21 821.23,265.6 829.53,265.6 829.53,273.9 830.92,273.9 830.92,265.6 839.23,265.6 839.23,264.21 "
     fill="#fff"
     id="polygon117"
     transform="matrix(-1,0,0,1,1061.3875,0)" />
  <polygon
     points="419.54,760.6 419.54,756.9 418.92,756.9 418.92,760.6 415.23,760.6 415.23,761.21 418.92,761.21 418.92,764.9 419.54,764.9 419.54,761.21 423.23,761.21 423.23,760.6 "
     fill="#fff"
     id="polygon119"
     transform="matrix(-1,0,0,1,1061.3875,0)" />
  <polygon
     points="584.53,647.6 584.53,643.9 583.92,643.9 583.92,647.6 580.23,647.6 580.23,648.21 583.92,648.21 583.92,651.9 584.53,651.9 584.53,648.21 588.23,648.21 588.23,647.6 "
     fill="#fff"
     id="polygon121"
     transform="matrix(-1,0,0,1,1061.3875,0)" />
  <polygon
     points="830.53,417.6 830.53,413.9 829.92,413.9 829.92,417.6 826.23,417.6 826.23,418.21 829.92,418.21 829.92,421.9 830.53,421.9 830.53,418.21 834.23,418.21 834.23,417.6 "
     fill="#fff"
     id="polygon123"
     transform="matrix(-1,0,0,1,1061.3875,0)" />
  <polygon
     points="662.53,475.6 662.53,471.9 661.92,471.9 661.92,475.6 658.23,475.6 658.23,476.21 661.92,476.21 661.92,479.9 662.53,479.9 662.53,476.21 666.23,476.21 666.23,475.6 "
     fill="#fff"
     id="polygon125"
     transform="matrix(-1,0,0,1,1061.3875,0)" />
  <polygon
     points="187.53,413.6 187.53,409.9 186.92,409.9 186.92,413.6 183.23,413.6 183.23,414.21 186.92,414.21 186.92,417.9 187.53,417.9 187.53,414.21 191.23,414.21 191.23,413.6 "
     fill="#fff"
     id="polygon127"
     transform="matrix(-1,0,0,1,1061.3875,0)" />
  <polygon
     points="588.53,178.6 588.53,174.9 587.92,174.9 587.92,178.6 584.23,178.6 584.23,179.21 587.92,179.21 587.92,182.9 588.53,182.9 588.53,179.21 592.23,179.21 592.23,178.6 "
     fill="#fff"
     id="polygon129"
     transform="matrix(-1,0,0,1,1061.3875,0)" />
  <polygon
     points="265.54,143.6 265.54,139.9 264.92,139.9 264.92,143.6 261.23,143.6 261.23,144.21 264.92,144.21 264.92,147.9 265.54,147.9 265.54,144.21 269.23,144.21 269.23,143.6 "
     fill="#fff"
     id="polygon131"
     transform="matrix(-1,0,0,1,1061.3875,0)" />
  <path
     d="m 269.96754,153.49 -5.77,14.73 v 60.22 h 20.46 v 10.88 h 11.53 l 10.88,-10.88 h 16.67 l 22.42,-22.42 v -52.53 z m 68.55,48.68 -12.86,12.82 h -20.5 l -10.88,10.88 v -10.88 h -17.3 v -53.82 h 61.5 z m -12.86,-26.27 v 22.4 h -7.68 v -22.4 z m -20.5,0 v 22.4 h -7.68 v -22.4 z"
     opacity="0.2"
     id="path133" />
  <path
     d="m 141.19213,343.95 -16.45,-6.86 22,-52.95 16.45,6.83 z m 16.79,-63.59 a -10.36,10.36 0 1 1 13.52,-5.65 -10.4,10.4 0 0 1 -13.52,5.65 z m 44.78,89.17 -16.41,-6.82 10.71,-25.77 c 2.55,-6.14 5.7,-14.07 -2.72,-17.57 -8.42,-3.5 -12.63,2.58 -15.5,9.48 l -10.92,26.24 -16.43,-6.83 22,-52.95 15.77,6.55 -3,7.22 0.23,0.1 c 3.92,-3.25 11.11,-5.41 19.11,-2.08 16.64,6.91 15.15,19.14 9.24,33.38 l -12.09,29.08 z"
     opacity="0.2"
     id="path135" />
  <path
     d="m 489.11754,66.95 a -16.36,16.36 0 1 0 16.4,16.35 -16.33,16.33 0 0 0 -16.4,-16.35 z m 0,27 a -10.63,10.63 0 1 1 10.63,-10.63 -10.65,10.65 0 0 1 -10.63,10.63 z m 20.84,-27.66 a -3.82,3.82 0 1 1 -3.82,-3.82 -3.81,3.81 0 0 1 3.82,3.81 z m 10.83,3.87 c -0.24,-5.11 -1.41,-9.64 -5.15,-13.37 -3.74,-3.73 -8.26,-4.9 -13.37,-5.15 -5.27,-0.3 -21.06,-0.3 -26.32,0 -5.1,0.24 -9.62,1.41 -13.37,5.14 -3.75,3.73 -4.9,8.26 -5.15,13.37 -0.3,5.27 -0.3,21.06 0,26.32 0.24,5.11 1.41,9.64 5.15,13.37 3.74,3.73 8.26,4.9 13.37,5.15 5.27,0.3 21.06,0.3 26.32,0 5.11,-0.24 9.64,-1.41 13.37,-5.15 3.73,-3.74 4.9,-8.26 5.15,-13.37 0.3,-5.27 0.3,-21 0,-26.31 z m -6.8,32 a -10.77,10.77 0 0 1 -6.06,6.06 c -4.2,1.67 -14.17,1.28 -18.81,1.28 -4.64,0 -14.62,0.37 -18.81,-1.28 a -10.77,10.77 0 0 1 -6.06,-6.06 c -1.67,-4.2 -1.28,-14.17 -1.28,-18.81 0,-4.64 -0.37,-14.62 1.28,-18.81 a -10.77,10.77 0 0 1 6.06,-6.06 c 4.2,-1.67 14.17,-1.28 18.81,-1.28 4.64,0 14.62,-0.37 18.81,1.28 a -10.77,10.77 0 0 1 6.06,6.06 c 1.67,4.2 1.28,14.17 1.28,18.81 0,4.64 0.38,14.58 -1.28,18.74 z"
     opacity="0.2"
     id="path137" />
  <path
     d="m 338.15754,435.09 v 58.71 a -3.64,3.64 0 0 1 -3.64,3.64 h -16.82 v -25.6 h 8.57 l 1.28,-10 h -9.87 v -6.36 c 0,-2.89 0.8,-4.85 4.94,-4.85 h 5.27 v -8.91 a -70.91,70.91 0 0 0 -7.69,-0.4 c -7.6,0 -12.82,4.64 -12.82,13.17 v 7.35 h -8.6 v 10 h 8.6 v 25.56 h -31.58 a -3.65,3.65 0 0 1 -3.64,-3.64 v -58.67 a -3.65,3.65 0 0 1 3.64,-3.64 h 58.71 a -3.65,3.65 0 0 1 3.65,3.64 z"
     opacity="0.2"
     id="path139" />
  <path
     d="m 194.69994,177.16 a -10.49,10.49 0 0 0 -5.44,-8.95 c -5.92,-3.23 -31.29,-9.34 -31.29,-9.34 0,0 -25.38,-6.11 -32.12,-5.93 a -10.49,10.49 0 0 0 -8.91,5.49 c -3.23,6 -6.43,19.25 -6.43,19.25 0,0 -3.2,13.29 -3,20.07 a -10.33,10.33 0 0 0 5.46,8.83 c 5.92,3.23 31.29,9.34 31.29,9.34 0,0 25.38,6.11 32.12,5.93 a -10.33,10.33 0 0 0 8.89,-5.38 c 3.23,-6 6.43,-19.25 6.43,-19.25 0,0 3.17,-13.28 3,-20.06 z m -54.82,20.37 5.81,-24.13 18.31,17.17 -24.11,7 z"
     opacity="0.2"
     id="path141" />
</svg>
